<?xml version="1.0" encoding="UTF-8"?>
<!-- Generator: Adobe Illustrator 18.0.0, SVG Export Plug-In . SVG Version: 6.00 Build 0)  -->
<!DOCTYPE svg PUBLIC "-//W3C//DTD SVG 1.1//EN" "http://www.w3.org/Graphics/SVG/1.1/DTD/svg11.dtd">
<svg version="1.1" id="Слой_1" xmlns="http://www.w3.org/2000/svg" xmlns:xlink="http://www.w3.org/1999/xlink" x="0px" y="0px" viewBox="0 0 24 22" enable-background="new 0 0 24 22" xml:space="preserve">
<path fill="#4F4C55" d="M23.5,8h-23C0.2,8,0,8.2,0,8.5v2C0,10.8,0.2,11,0.5,11h0.6L3,21.6c0,0.2,0.3,0.4,0.5,0.4h17  c0.2,0,0.4-0.2,0.5-0.4L22.9,11h0.6c0.3,0,0.5-0.2,0.5-0.5v-2C24,8.2,23.8,8,23.5,8 M23,10h-0.5h-21H1V9h22V10z"/>
<path fill="#4F4C55" d="M3.5,7c0.1,0,0.3,0,0.4-0.1l6-6c0.2-0.2,0.2-0.5,0-0.7C9.7,0,9.3,0,9.1,0.1l-6,6C3,6.3,3,6.7,3.1,6.9  C3.2,7,3.4,7,3.5,7"/>
<path fill="#4F4C55" d="M20.1,6.9C20.2,7,20.4,7,20.5,7c0.1,0,0.3,0,0.4-0.1c0.2-0.2,0.2-0.5,0-0.7l-6-6c-0.2-0.2-0.5-0.2-0.7,0  c-0.2,0.2-0.2,0.5,0,0.7L20.1,6.9z"/>
</svg>