<?xml version="1.0" encoding="UTF-8"?>
<!DOCTYPE svg PUBLIC "-//W3C//DTD SVG 1.1//EN" "http://www.w3.org/Graphics/SVG/1.1/DTD/svg11.dtd">
<!-- Creator: CorelDRAW 2019 (64-Bit Оценочная версия) -->
<svg xmlns="http://www.w3.org/2000/svg" xml:space="preserve" width="665mm" height="430mm" version="1.1" style="shape-rendering:geometricPrecision; text-rendering:geometricPrecision; image-rendering:optimizeQuality; fill-rule:evenodd; clip-rule:evenodd"
viewBox="0 0 66500 43000"
 xmlns:xlink="http://www.w3.org/1999/xlink"
 xmlns:xodm="http://www.corel.com/coreldraw/odm/2003">
 <defs>
  <style type="text/css">
   <![CDATA[
    .fil0 {fill:#FEFEFE}
    .fil2 {fill:#7B0125}
    .fil8 {fill:#C8691C}
    .fil4 {fill:#E46B0B}
    .fil1 {fill:#F4C38B}
    .fil7 {fill:#F9F9F9}
    .fil5 {fill:#FAFAF9}
    .fil6 {fill:#FBFBFB}
    .fil3 {fill:#FEFEFE;fill-rule:nonzero}
   ]]>
  </style>
 </defs>
 <g id="Слой_x0020_1">
  <metadata id="CorelCorpID_0Corel-Layer"/>
  <g id="_2228624169232">
   <path class="fil0" d="M41511.55 20989.03c156.76,53.78 566.71,292.42 699.11,427.76 246.9,252.37 207.66,525.29 207.66,937.61 0,253.26 31.84,930.6 -9.79,1135.99 -32.9,162.28 -184.85,189.98 -352.76,211.31 -177.67,22.58 -362.18,27.1 -544.22,26.9 -274.33,-0.31 -821.38,39.35 -883.52,-235.06 -37.97,-167.69 -8.92,-895.6 -8.76,-1122.15 0.64,-878.86 14.98,-927.27 892.28,-1382.36zm305.74 -230.07c32.45,-70.28 117,-145.31 171.39,-253.34 258.6,-513.64 86.63,-1222.07 -91.31,-1733.68l-230.63 -609.66c-35.06,-50.86 -67.67,-148 -97.46,-213.92l-101.75 -208.63c-1.17,-6.12 -5.5,-6.87 -8.34,-10.24 55.11,352.85 587.67,1308.91 548.11,2161.81 -37.44,807.11 -793,1138.27 -1547.49,1134.56 -398.69,-1.97 -776.31,-116.28 -1039.55,-297.4 -673.85,-463.64 -480.93,-1331.53 -247.86,-2024.45 113.2,-336.53 235.89,-668.06 344.63,-979.18 -52.91,42.17 -312.7,675.1 -356.82,797.36 -103.61,287.14 -206.7,562.76 -265.28,887.06 -294.03,1627.75 875.66,1547.98 1303.53,2069.31 201.66,245.7 151.96,632.08 151.96,994.75 0,200.51 36.71,990.04 -43.37,1103.15 -162.86,230.02 -744.14,30.95 -868.08,288l4434.63 0.57c-111.14,-206.52 -748.21,-118.8 -995.36,-195.39 -205.06,-63.56 -191.36,-176.75 -191.16,-397.92 0.18,-198.19 -0.4,-396.37 -0.4,-594.56 0,-339.95 -54.95,-822.74 87.15,-1097.49 137.29,-265.45 384.5,-353.14 671.24,-516.69 274.84,-156.76 478.59,-287.14 616.82,-571.16 268.69,-552.05 43.26,-1401.3 -175.89,-1942.57 -59.24,-146.31 -283.26,-716.7 -354.61,-813.63 13.31,95.19 324.16,919.35 400.77,1191.65 115.27,409.66 234.91,964.28 53.54,1369.58 -258.22,576.99 -1027.67,779.49 -1645.63,720.97 -105.78,-10.01 -547.6,-78.99 -624.77,-178.36l101.99 -80.5z"/>
   <path class="fil1" d="M41666.74 18162.28l230.63 609.66c194.59,574.76 393.58,1364.15 -14.93,1890.37 -98.41,126.78 -85.72,89.95 75.95,141.52 586.69,187.12 1264.71,170.22 1733.61,-274.87 135.3,-135.18 279.47,-407.72 218.72,-526.1 -21.78,8.99 -89.55,72.11 -110.28,91.18 -865.21,659.05 -1531.19,-377.45 -1586.06,-1180.79 -12.46,-182.38 -1.05,-344.37 26.49,-524.57 22.93,-139.22 52.14,-278.4 77.21,-417.49 60.06,-341.41 194.36,-720.78 -13.62,-997.09 -103.02,-136.86 -347.06,-308.69 -559.31,-157.59 90.27,61.13 223.32,-59.62 392.42,188.61 181.39,266.27 -104.75,650.02 -220.34,830.1 -39.85,62.08 -204.49,297.73 -216.23,361.26l-34.26 -34.2z"/>
   <path class="fil2" d="M41791.21 19202.86c-106.52,-380.87 -268.65,-783 -438.36,-1140.81 -115.25,-240.75 -365.28,-714.42 -402.33,-1008.13 -38.75,-307.07 329.41,-473.3 555.4,-146.9 55.21,79.74 75.67,153.86 122.49,230.12 178.89,-650.34 -898.97,-945.32 -902.42,2.07 -2.28,627.75 -47.7,1206.25 -500.5,1667.91 -305.3,300.8 -512.72,343.88 -838.17,556.67 -343.85,224.81 -347.52,519.62 -201.75,874.43 345.1,769.61 1526.68,812.85 2180.16,452.69 567.11,-312.55 584.61,-870.23 439.75,-1435.08l-14.27 -52.97z"/>
  </g>
  <path class="fil3" d="M24077.22 20680.91l-3.17 9.98 -2083.45 -9.98 0 -2689.34 2086.62 0c158.35,0 313.53,31.93 465.53,96.46 151.99,64.52 275.39,150.99 370.72,260.08 237.78,276.72 356.95,605.98 356.95,987.8 0,382.48 -119.17,711.75 -356.95,988.46 -95.33,109.09 -218.73,195.57 -370.72,260.09 -152,64.52 -307.18,96.45 -465.53,96.45zm324.13 -1345c0,-195.56 -47.67,-337.25 -142.47,-424.39 -72.56,-65.19 -156.23,-97.78 -251.56,-97.78l-1149.76 0 0 1045 1149.76 0c95.33,0 179,-33.26 251.56,-99.77 94.8,-87.14 142.47,-228.16 142.47,-423.06zm4314.66 -775.6c15.88,91.13 23.3,173.61 23.3,248.11 0,309.97 -115.98,534.81 -349.01,673.83 201.79,101.77 305.58,270.06 311.94,504.87 6.36,235.48 23.3,400.44 50.31,496.23 27.54,95.12 63.02,160.97 106.45,197.56l-996.18 0c-30.19,-31.26 -48.72,-75.17 -56.67,-132.37 -7.94,-57.21 -11.65,-119.07 -11.65,-186.25 0,-67.19 -4.23,-132.37 -12.18,-195.57 -12.71,-92.46 -49.25,-150.33 -110.16,-173.61 -61.43,-23.28 -149.34,-35.25 -263.74,-35.25l-982.4 0 0 723.05 -866.97 0 0 -2689.34 2306.95 0c354.83,0 600.04,99.78 735.62,300 59.84,89.8 97.97,179.6 114.39,268.74zm-887.08 290.68c-42.37,-47.89 -130.29,-71.84 -263.74,-71.84l-1139.17 0 0 389.8 1139.17 0c80.49,0 142.98,-11.98 186.94,-34.59 43.97,-22.62 73.62,-49.22 90.04,-79.82 15.88,-30.6 23.83,-57.21 23.83,-80.49 0,-53.22 -12.72,-94.46 -37.07,-123.06zm1278.46 -859.42l866.96 0 0 2689.34 -866.96 0 0 -2689.34zm2505.54 0l1253.57 1586.47 0 -1586.47 867.48 0 0 2689.34 -1074.03 0 -1251.97 -1588.46 0 1588.46 -866.96 0 0 -2689.34 1071.91 0zm3554.69 2233.02l0 456.32 -866.96 0 0 -2689.34 866.96 0 0 1098.89 1191.6 -1098.89 1401.32 0 -1382.78 1190.68 1471.23 1498.66 -1370.08 0 -797.58 -898.66 -513.71 442.34zm-12310.06 3090.33l0 456.32 -866.96 0 0 -2689.34 866.96 0 0 1098.89 1191.6 -1098.89 1401.32 0 -1382.79 1190.68 1471.24 1498.66 -1370.08 0 -797.59 -898.66 -513.7 442.34zm2822.77 -2233.02l866.96 0 0 2689.34 -866.96 0 0 -2689.34zm2505.54 0l1253.57 1586.47 0 -1586.47 867.48 0 0 2689.34 -1074.03 0 -1251.97 -1588.46 0 1588.46 -866.96 0 0 -2689.34 1071.91 0zm5068.82 -9.97c158.35,40.57 303.98,107.09 437.45,200.88 122.34,92.46 218.72,204.88 290.22,337.25 71.49,132.37 113.87,257.43 127.11,373.83l-1022.66 0c-38.14,-75.16 -136.64,-129.04 -296.05,-161.64 -111.75,-24.61 -238.86,-36.58 -381.85,-36.58 -342.12,0 -577.79,52.55 -705.96,157.65 -43.42,39.24 -76.79,87.14 -100.62,144.34 -41.31,98.45 -61.96,211.53 -61.96,338.58 0,48.56 4.23,102.44 12.71,162.97 9,60.53 25.41,119.07 49.25,175.61 23.83,56.54 57.2,105.1 100.62,145.01 59.85,49.22 137.7,85.14 233.56,107.09 95.86,21.95 189.07,35.92 280.16,41.24 91.09,4.66 155.17,7.32 192.24,7.32 409.91,0 664.65,-75.17 765.28,-225.5l-561.91 0 0 -592.68 1509.89 0 0 1523.94 -555.55 0 -96.39 -319.29c-170.53,163.64 -368.6,278.05 -594.21,344.57 -157.29,45.23 -312.99,68.51 -467.11,68.51 -103.27,0 -230.37,-3.99 -381.84,-11.97 -368.08,-19.29 -668.89,-110.42 -902.97,-272.73 -338.95,-250.77 -508.42,-635.25 -508.42,-1154.09 0,-518.18 169.47,-902.65 508.42,-1153.43 234.08,-162.3 534.89,-253.43 902.97,-272.72 151.47,-7.99 278.57,-11.98 381.84,-11.98 102.75,0 229.32,3.99 380.25,11.98 150.94,7.98 306.12,31.92 465.53,71.84z"/>
  <g id="_2228624163664">
   <path class="fil4" d="M45528.84 22378.53c1.17,-521.42 -383.16,-1159.19 -537.83,-1614.48 -263.13,-774.56 33.27,-1060.23 652.19,-1295.67 258.5,-98.34 559.85,-175.07 728.41,-347.33 308.21,-314.98 525.94,18.11 728.11,86.82 114.35,38.86 274.44,-83.7 369.6,-138.33 330.75,-189.85 703.53,-388.21 1023.57,-586.96l-488.07 236.69c-160.68,81.04 -312.53,158.29 -469.17,243.09 -254,137.51 -342.23,226.54 -476,140.87 -129.32,-82.81 -284.87,-232.33 -504.34,-191.68 -206.68,38.28 -197.95,156.14 -450.29,277.17 -161.96,77.68 -344.61,130.41 -517.9,195.08 -1618.24,603.9 -341.36,1764.96 -159.46,2848.72 118.34,705.07 -622.32,1072.3 -1109.15,687.66 -212.03,-167.53 -204.49,-304.97 -269.74,-439.55 -10.85,175.99 18.65,590.52 85.04,725.86 99.77,203.42 807.35,155.19 1043.54,130.12 147.33,-15.65 220.52,-10.77 252.08,-154.21 69.61,-316.44 98.7,-474.09 99.41,-803.87z"/>
   <path class="fil5" d="M45154.06 19863.71c30.76,-11.1 160.79,-94.42 266.64,-137.92 429.92,-176.66 821.29,-181.98 1148.57,-495.17 86.16,-82.45 189.2,13.89 270.6,62.27 262.35,155.93 332.94,160.63 596.53,5.81l1284.69 -765.84c194.32,-115.8 690.27,-402 771.46,-470.09 2.16,-1.81 6.14,-5.33 9.15,-8.06 -78.73,29.08 -199.28,106.8 -271.78,144.92 -94.22,49.54 -177.21,100.09 -261.82,144.93l-1053.96 589.03c-168.71,100.18 -352.67,202.97 -530.29,297.93 -290.11,155.1 -308.76,74.11 -573.28,-83.14 -92.16,-54.79 -215.33,-106.93 -307.57,-12.47 -361.24,369.92 -1150.12,429.47 -1348.94,727.8z"/>
   <path class="fil5" d="M46217.23 18103.39c0.15,172.41 42.09,334.67 -77.85,379.48 -214.54,80.15 -282.01,89.54 -486.06,268.64l-204.75 187.45c-229.15,209.49 -168.41,166.26 -465.04,306.53 -198.38,93.81 -368.86,194.97 -196.35,427.61 -21.08,-73.34 -54.55,-108.8 -47.36,-202.83 45.37,-148.66 478.35,-203.95 686.5,-408.1 154.85,-151.87 435.82,-391.31 630.91,-460.45 117.54,-41.65 184.61,-27.41 232.12,-130.12 47.44,-102.56 19.37,-242.14 19.37,-368.21 0,-249.03 141.13,-282.54 298.22,-376.65 273.14,-163.63 799.87,-467.58 1039.35,-632.76 69.37,-47.85 150.54,-91.3 211.57,-140.19 -89.43,28.28 -1278.7,681.85 -1364.08,733.97 -166.32,101.52 -276.81,156.63 -276.55,415.63z"/>
   <path class="fil6" d="M43870.39 21888.19c145.48,-1.17 813.39,-4.72 897.5,-47.69 -79.94,-37.83 -866.05,-48.92 -1013.01,-46.8 16.53,236.31 149.62,1220.31 200.24,1446.95 84.58,378.72 1010.03,269.18 1291.37,207.52 -31.55,-4.14 -463.95,36.87 -705.47,18.91 -203.68,-15.14 -482.29,-58.68 -525.78,-229 -27.69,-108.43 -151.43,-1262.26 -144.85,-1349.89z"/>
   <path class="fil6" d="M44976.25 23865.03c197.93,-0.95 490.88,-16.12 559.12,-156.58 42.49,-87.44 68.14,-486.44 82.1,-615.69 19.22,-177.81 140.91,-1171.88 116.48,-1251.71 -62,289.22 -182.01,1257.83 -230.56,1615.4 -22.99,169.23 -3.58,247.94 -184.75,282.52 -132.93,25.38 -279.45,25.23 -414.53,29.12 -215.99,6.23 -687.52,55.99 -835.71,-58.32 64.31,163.8 701.11,154.91 907.85,155.26z"/>
   <path class="fil7" d="M46453.87 18287.38c27.01,-129.19 -11.93,-252.68 82.55,-325.23 117.51,-90.24 689.93,-401.75 758.52,-490.86 -75.28,23.49 -209.41,113.83 -282.95,152.82l-534.17 308.49c-72.32,67.1 -63.68,251.69 -23.95,354.78z"/>
   <path class="fil8" d="M44221.07 22174.24c-159.4,147.25 -33.01,550.53 125.49,624.75 -34.07,-86.31 -83.05,-148.99 -111.67,-260.21 -37.37,-145.21 -11.56,-224.11 -13.82,-364.54z"/>
  </g>
 </g>
</svg>
